STARTFONT 2.1
COMMENT converted Oberon font (using FontToBDF by R.Crelier 10.1.91)
FONT Syntax20b.Scn.Fnt
SIZE 20 75 75
FONTBOUNDINGBOX  22 22 0 -5
STARTPROPERTIES 3
FONT_ASCENT 17
FONT_DESCENT 5
DEFAULT_CHAR 0
ENDPROPERTIES
CHARS 122
STARTCHAR c0
ENCODING -1 0
SWIDTH 0 0
DWIDTH 0 0
BBX 0 0 0 0
BITMAP
ENDCHAR
STARTCHAR c9
ENCODING -1 9
SWIDTH 645 0
DWIDTH 20 0
BBX 0 0 0 0
BITMAP
ENDCHAR
STARTCHAR c32
ENCODING -1 32
SWIDTH 161 0
DWIDTH 5 0
BBX 0 0 0 0
BITMAP
ENDCHAR
STARTCHAR c33
ENCODING -1 33
SWIDTH 258 0
DWIDTH 8 0
BBX 4 17 2 0
BITMAP
F0
F0
F0
F0
F0
F0
F0
F0
F0
F0
F0
00
00
F0
F0
F0
F0
ENDCHAR
STARTCHAR c34
ENCODING -1 34
SWIDTH 322 0
DWIDTH 10 0
BBX 7 7 2 10
BITMAP
EE
EE
EE
CC
CC
CC
CC
ENDCHAR
STARTCHAR c35
ENCODING -1 35
SWIDTH 451 0
DWIDTH 14 0
BBX 11 17 1 0
BITMAP
3180
3180
3180
3180
3180
FFE0
FFE0
3180
3180
3180
FFE0
FFE0
3180
3180
3180
3180
3180
ENDCHAR
STARTCHAR c36
ENCODING -1 36
SWIDTH 419 0
DWIDTH 13 0
BBX 13 19 0 -2
BITMAP
1FF0
7FF0
7FF0
FB00
F300
F300
FB00
7FC0
7FF0
1FF0
06F8
0678
0678
06F8
FFF0
FFF0
FFC0
0600
0600
ENDCHAR
STARTCHAR c37
ENCODING -1 37
SWIDTH 580 0
DWIDTH 18 0
BBX 18 17 0 0
BITMAP
1C0600
7F0600
770C00
E39800
E39800
E3B000
776000
7F6000
1CCE00
01BF80
01BB80
0371C0
0671C0
0671C0
0C3B80
183F80
180E00
ENDCHAR
STARTCHAR c38
ENCODING -1 38
SWIDTH 483 0
DWIDTH 15 0
BBX 15 17 0 0
BITMAP
0F80
1FC0
38C0
38C0
38C0
3D80
1F00
0E1C
1F1C
3F9C
7BD8
F1F8
F0F0
F078
F8FC
7FDE
3F0E
ENDCHAR
STARTCHAR c39
ENCODING -1 39
SWIDTH 193 0
DWIDTH 6 0
BBX 3 7 2 10
BITMAP
E0
E0
E0
C0
C0
C0
C0
ENDCHAR
STARTCHAR c40
ENCODING -1 40
SWIDTH 290 0
DWIDTH 9 0
BBX 6 21 2 -4
BITMAP
0C
18
30
30
60
60
60
C0
C0
C0
C0
C0
C0
C0
60
60
60
30
30
18
0C
ENDCHAR
STARTCHAR c41
ENCODING -1 41
SWIDTH 290 0
DWIDTH 9 0
BBX 6 21 1 -4
BITMAP
C0
60
30
30
18
18
18
0C
0C
0C
0C
0C
0C
0C
18
18
18
30
30
60
C0
ENDCHAR
STARTCHAR c42
ENCODING -1 42
SWIDTH 419 0
DWIDTH 13 0
BBX 13 12 0 0
BITMAP
38E0
18C0
1DC0
0D80
0700
FFF8
FFF8
0700
0D80
1DC0
18C0
38E0
ENDCHAR
STARTCHAR c43
ENCODING -1 43
SWIDTH 419 0
DWIDTH 13 0
BBX 12 12 0 0
BITMAP
0600
0600
0600
0600
0600
FFF0
FFF0
0600
0600
0600
0600
0600
ENDCHAR
STARTCHAR c44
ENCODING -1 44
SWIDTH 193 0
DWIDTH 6 0
BBX 4 8 2 -4
BITMAP
F0
F0
F0
E0
E0
C0
C0
C0
ENDCHAR
STARTCHAR c45
ENCODING -1 45
SWIDTH 419 0
DWIDTH 13 0
BBX 11 2 1 5
BITMAP
FFE0
FFE0
ENDCHAR
STARTCHAR c46
ENCODING -1 46
SWIDTH 193 0
DWIDTH 6 0
BBX 4 4 2 0
BITMAP
F0
F0
F0
F0
ENDCHAR
STARTCHAR c47
ENCODING -1 47
SWIDTH 387 0
DWIDTH 12 0
BBX 8 17 2 0
BITMAP
03
03
07
06
0E
0C
0C
1C
18
38
30
30
70
60
E0
C0
C0
ENDCHAR
STARTCHAR c48
ENCODING -1 48
SWIDTH 419 0
DWIDTH 13 0
BBX 12 16 0 0
BITMAP
0F00
3FC0
7FE0
79E0
F0F0
F0F0
F0F0
F0F0
F0F0
F0F0
F0F0
F0F0
79E0
7FE0
3FC0
0F00
ENDCHAR
STARTCHAR c49
ENCODING -1 49
SWIDTH 419 0
DWIDTH 13 0
BBX 9 16 0 0
BITMAP
0380
0F80
3F80
FF80
F780
C780
0780
0780
0780
0780
0780
0780
0780
0780
0780
0780
ENDCHAR
STARTCHAR c50
ENCODING -1 50
SWIDTH 419 0
DWIDTH 13 0
BBX 11 16 0 0
BITMAP
3F00
FFC0
FFC0
E3E0
01E0
01E0
03C0
03C0
0780
0F00
1E00
3C00
7800
FFE0
FFE0
FFE0
ENDCHAR
STARTCHAR c51
ENCODING -1 51
SWIDTH 419 0
DWIDTH 13 0
BBX 10 16 1 0
BITMAP
FE00
FF80
FF80
03C0
03C0
0380
FF00
FE00
FF00
0780
03C0
03C0
07C0
FF80
FF80
FE00
ENDCHAR
STARTCHAR c52
ENCODING -1 52
SWIDTH 419 0
DWIDTH 13 0
BBX 13 16 0 0
BITMAP
03C0
07C0
0FC0
0FC0
1BC0
3BC0
73C0
73C0
E3C0
FFF8
FFF8
FFF8
03C0
03C0
03C0
03C0
ENDCHAR
STARTCHAR c53
ENCODING -1 53
SWIDTH 419 0
DWIDTH 13 0
BBX 11 16 1 0
BITMAP
7FE0
7FE0
7FE0
7000
F000
F000
FF00
FFC0
FFC0
03E0
01E0
01E0
03C0
FFC0
FF80
FE00
ENDCHAR
STARTCHAR c54
ENCODING -1 54
SWIDTH 419 0
DWIDTH 13 0
BBX 13 16 0 0
BITMAP
03F0
0FF0
1FF0
3E00
7800
7800
F3C0
F7F0
FFF0
FCF8
F878
F878
7CF8
7FF0
3FF0
0FC0
ENDCHAR
STARTCHAR c55
ENCODING -1 55
SWIDTH 419 0
DWIDTH 13 0
BBX 12 16 0 0
BITMAP
FFF0
FFF0
FFF0
00F0
01E0
01E0
03C0
03C0
0780
0780
0F00
0F00
1E00
1E00
3C00
3C00
ENDCHAR
STARTCHAR c56
ENCODING -1 56
SWIDTH 419 0
DWIDTH 13 0
BBX 12 16 0 0
BITMAP
1F80
7FE0
7FF0
F0F0
F0F0
F0F0
FFE0
7F80
1FE0
7FF0
F0F0
F0F0
F0F0
FFE0
7FE0
1F80
ENDCHAR
STARTCHAR c57
ENCODING -1 57
SWIDTH 419 0
DWIDTH 13 0
BBX 13 16 0 0
BITMAP
1F80
7FE0
7FF0
F9F0
F0F8
F0F8
F9F8
7FF8
7F78
1E78
00F0
00F0
03E0
7FC0
7F80
7E00
ENDCHAR
STARTCHAR c58
ENCODING -1 58
SWIDTH 258 0
DWIDTH 8 0
BBX 4 12 3 0
BITMAP
F0
F0
F0
F0
00
00
00
00
F0
F0
F0
F0
ENDCHAR
STARTCHAR c59
ENCODING -1 59
SWIDTH 258 0
DWIDTH 8 0
BBX 4 16 3 -4
BITMAP
F0
F0
F0
F0
00
00
00
00
F0
F0
F0
E0
E0
C0
C0
C0
ENDCHAR
STARTCHAR c60
ENCODING -1 60
SWIDTH 419 0
DWIDTH 13 0
BBX 13 12 0 0
BITMAP
0038
00F8
03E0
0F80
3E00
F000
F000
3E00
0F80
03E0
00F8
0038
ENDCHAR
STARTCHAR c61
ENCODING -1 61
SWIDTH 419 0
DWIDTH 13 0
BBX 11 6 1 3
BITMAP
FFE0
FFE0
0000
0000
FFE0
FFE0
ENDCHAR
STARTCHAR c62
ENCODING -1 62
SWIDTH 419 0
DWIDTH 13 0
BBX 13 12 0 0
BITMAP
E000
F800
3E00
0F80
03E0
0078
0078
03E0
0F80
3E00
F800
E000
ENDCHAR
STARTCHAR c63
ENCODING -1 63
SWIDTH 322 0
DWIDTH 10 0
BBX 9 17 1 0
BITMAP
FE00
FF00
FF80
0780
0780
0780
0F00
1F00
1E00
3C00
3C00
3C00
0000
3C00
3C00
3C00
3C00
ENDCHAR
STARTCHAR c64
ENCODING -1 64
SWIDTH 645 0
DWIDTH 20 0
BBX 18 18 1 -1
BITMAP
03F000
0FFC00
1C0F00
300300
60F980
63F980
C338C0
C738C0
C738C0
C738C0
C738C0
C738C0
C7F980
63D980
701F00
380600
1FE000
07E000
ENDCHAR
STARTCHAR c65
ENCODING -1 65
SWIDTH 451 0
DWIDTH 14 0
BBX 14 16 0 0
BITMAP
07C0
07C0
07C0
0EE0
0EE0
0EE0
1CF0
1C70
1C70
3FF8
3FF8
3878
7878
703C
F03C
F03C
ENDCHAR
STARTCHAR c66
ENCODING -1 66
SWIDTH 451 0
DWIDTH 14 0
BBX 11 16 2 0
BITMAP
FF80
FFC0
F3E0
F1E0
F1E0
F1E0
F3C0
FF00
FF00
F3C0
F1E0
F1E0
F1E0
F3E0
FFC0
FF80
ENDCHAR
STARTCHAR c67
ENCODING -1 67
SWIDTH 387 0
DWIDTH 12 0
BBX 10 16 1 0
BITMAP
07C0
1FC0
3FC0
7C00
7800
F800
F000
F000
F000
F000
F800
7800
7C00
3FC0
1FC0
07C0
ENDCHAR
STARTCHAR c68
ENCODING -1 68
SWIDTH 548 0
DWIDTH 17 0
BBX 14 16 2 0
BITMAP
FF80
FFE0
FFF0
F0F8
F078
F07C
F03C
F03C
F03C
F03C
F07C
F078
F0F8
FFF0
FFE0
FF00
ENDCHAR
STARTCHAR c69
ENCODING -1 69
SWIDTH 419 0
DWIDTH 13 0
BBX 10 16 2 0
BITMAP
FFC0
FFC0
FFC0
F000
F000
F000
FFC0
FFC0
FFC0
F000
F000
F000
F000
FFC0
FFC0
FFC0
ENDCHAR
STARTCHAR c70
ENCODING -1 70
SWIDTH 387 0
DWIDTH 12 0
BBX 10 16 2 0
BITMAP
FFC0
FFC0
FFC0
F000
F000
F000
FFC0
FFC0
FFC0
F000
F000
F000
F000
F000
F000
F000
ENDCHAR
STARTCHAR c71
ENCODING -1 71
SWIDTH 483 0
DWIDTH 15 0
BBX 13 16 1 0
BITMAP
07F0
1FF0
3FF0
7C00
7800
F800
F000
F000
F078
F078
F878
7878
7C78
3FF8
1FF8
07C0
ENDCHAR
STARTCHAR c72
ENCODING -1 72
SWIDTH 516 0
DWIDTH 16 0
BBX 12 16 2 0
BITMAP
F0F0
F0F0
F0F0
F0F0
F0F0
F0F0
FFF0
FFF0
FFF0
F0F0
F0F0
F0F0
F0F0
F0F0
F0F0
F0F0
ENDCHAR
STARTCHAR c73
ENCODING -1 73
SWIDTH 258 0
DWIDTH 8 0
BBX 4 16 2 0
BITMAP
F0
F0
F0
F0
F0
F0
F0
F0
F0
F0
F0
F0
F0
F0
F0
F0
ENDCHAR
STARTCHAR c74
ENCODING -1 74
SWIDTH 258 0
DWIDTH 8 0
BBX 6 16 0 0
BITMAP
3C
3C
3C
3C
3C
3C
3C
3C
3C
3C
3C
3C
3C
F8
F8
E0
ENDCHAR
STARTCHAR c75
ENCODING -1 75
SWIDTH 483 0
DWIDTH 15 0
BBX 13 16 2 0
BITMAP
F078
F078
F0F0
F1F0
F3C0
F3C0
F700
FF00
FF80
F7C0
F3C0
F3E0
F1F0
F1F0
F0F8
F0F8
ENDCHAR
STARTCHAR c76
ENCODING -1 76
SWIDTH 419 0
DWIDTH 13 0
BBX 11 16 2 0
BITMAP
F000
F000
F000
F000
F000
F000
F000
F000
F000
F000
F000
F000
F000
FFE0
FFE0
FFE0
ENDCHAR
STARTCHAR c77
ENCODING -1 77
SWIDTH 677 0
DWIDTH 21 0
BBX 21 16 0 0
BITMAP
3F07E0
3F07E0
3F07E0
3F0FE0
778EF0
778EF0
778EF0
779EF0
73DCF0
73DCF0
E3DC78
E3DC78
E1F878
E1F878
E1F878
E1F878
ENDCHAR
STARTCHAR c78
ENCODING -1 78
SWIDTH 548 0
DWIDTH 17 0
BBX 13 16 2 0
BITMAP
FC38
FC38
FC38
FE38
EE38
EE38
EF38
E738
E738
E7B8
E3B8
E3B8
E3F8
E1F8
E1F8
E1F8
ENDCHAR
STARTCHAR c79
ENCODING -1 79
SWIDTH 419 0
DWIDTH 13 0
BBX 15 16 1 0
BITMAP
07C0
1FF0
3FF8
783C
783C
F01E
F01E
F01E
F01E
F01E
F01E
783C
783C
3FF8
1FF0
07C0
ENDCHAR
STARTCHAR c80
ENCODING -1 80
SWIDTH 419 0
DWIDTH 13 0
BBX 11 16 2 0
BITMAP
FF80
FFC0
F3E0
F1E0
F1E0
F1E0
F3E0
FFC0
FF80
F000
F000
F000
F000
F000
F000
F000
ENDCHAR
STARTCHAR c81
ENCODING -1 81
SWIDTH 548 0
DWIDTH 17 0
BBX 15 19 1 -3
BITMAP
07C0
1FF0
3FF8
783C
783C
F01E
F01E
F01E
F01E
F01E
F01E
783C
783C
3FF8
1FF0
07C0
00F8
003E
001E
ENDCHAR
STARTCHAR c82
ENCODING -1 82
SWIDTH 451 0
DWIDTH 14 0
BBX 12 16 2 0
BITMAP
FF80
FFC0
F3E0
F1E0
F1E0
F1E0
F3C0
FF80
FE00
F780
F3C0
F3E0
F1E0
F1F0
F0F0
F0F0
ENDCHAR
STARTCHAR c83
ENCODING -1 83
SWIDTH 419 0
DWIDTH 13 0
BBX 11 16 1 0
BITMAP
1FE0
7FE0
7FE0
F000
F000
F000
FF00
7FC0
7FC0
1FE0
01E0
01E0
01E0
FFC0
FFC0
FF00
ENDCHAR
STARTCHAR c84
ENCODING -1 84
SWIDTH 387 0
DWIDTH 12 0
BBX 12 16 0 0
BITMAP
FFF0
FFF0
FFF0
0F00
0F00
0F00
0F00
0F00
0F00
0F00
0F00
0F00
0F00
0F00
0F00
0F00
ENDCHAR
STARTCHAR c85
ENCODING -1 85
SWIDTH 516 0
DWIDTH 16 0
BBX 12 16 2 0
BITMAP
F070
F070
F070
F070
F070
F070
F070
F070
F070
F070
F070
F070
78E0
7FE0
3FC0
0F00
ENDCHAR
STARTCHAR c86
ENCODING -1 86
SWIDTH 419 0
DWIDTH 13 0
BBX 13 16 0 0
BITMAP
F038
F038
F038
7870
7870
7870
78E0
38E0
3CE0
3CE0
1DC0
1DC0
1DC0
0F80
0F80
0F80
ENDCHAR
STARTCHAR c87
ENCODING -1 87
SWIDTH 709 0
DWIDTH 22 0
BBX 22 16 0 0
BITMAP
F07C1C
F07C1C
F07C1C
F07E1C
78EE3C
78EE38
78EE38
38EF38
3CCF38
3DC770
1DC770
1DC770
1DC7F0
0F83E0
0F83E0
0F83E0
ENDCHAR
STARTCHAR c88
ENCODING -1 88
SWIDTH 419 0
DWIDTH 13 0
BBX 13 16 0 0
BITMAP
F838
F838
7C70
7C70
3EE0
1EE0
1FC0
0F80
0F80
1FC0
3BC0
3BE0
71F0
71F0
E0F8
E0F8
ENDCHAR
STARTCHAR c89
ENCODING -1 89
SWIDTH 354 0
DWIDTH 11 0
BBX 11 16 0 0
BITMAP
F1E0
F1E0
F1C0
71C0
7B80
7B80
3B00
3F00
3F00
1E00
1E00
1E00
1E00
1E00
1E00
1E00
ENDCHAR
STARTCHAR c90
ENCODING -1 90
SWIDTH 387 0
DWIDTH 12 0
BBX 12 16 0 0
BITMAP
7FF0
7FF0
7FE0
01E0
03C0
07C0
0780
0F00
0F00
1E00
3E00
3C00
7800
7FE0
FFE0
FFE0
ENDCHAR
STARTCHAR c91
ENCODING -1 91
SWIDTH 290 0
DWIDTH 9 0
BBX 5 21 2 -4
BITMAP
F8
F8
C0
C0
C0
C0
C0
C0
C0
C0
C0
C0
C0
C0
C0
C0
C0
C0
C0
F8
F8
ENDCHAR
STARTCHAR c92
ENCODING -1 92
SWIDTH 387 0
DWIDTH 12 0
BBX 8 17 2 0
BITMAP
C0
C0
E0
60
70
30
30
38
18
1C
0C
0C
0E
06
07
03
03
ENDCHAR
STARTCHAR c93
ENCODING -1 93
SWIDTH 290 0
DWIDTH 9 0
BBX 5 21 2 -4
BITMAP
F8
F8
18
18
18
18
18
18
18
18
18
18
18
18
18
18
18
18
18
F8
F8
ENDCHAR
STARTCHAR c94
ENCODING -1 94
SWIDTH 419 0
DWIDTH 13 0
BBX 12 13 1 0
BITMAP
0600
0F00
1F80
36C0
76E0
E670
4620
0600
0600
0600
0600
0600
0600
ENDCHAR
STARTCHAR c95
ENCODING -1 95
SWIDTH 225 0
DWIDTH 7 0
BBX 7 2 0 5
BITMAP
FE
FE
ENDCHAR
STARTCHAR c96
ENCODING -1 96
SWIDTH 354 0
DWIDTH 11 0
BBX 5 4 2 13
BITMAP
E0
70
30
18
ENDCHAR
STARTCHAR c97
ENCODING -1 97
SWIDTH 354 0
DWIDTH 11 0
BBX 11 12 0 0
BITMAP
1F00
7F80
7FC0
63C0
03C0
1FC0
7FC0
F3C0
F3C0
FFC0
FDE0
79E0
ENDCHAR
STARTCHAR c98
ENCODING -1 98
SWIDTH 419 0
DWIDTH 13 0
BBX 11 17 1 0
BITMAP
F000
F000
F000
F000
F000
F780
FFC0
FFE0
F1E0
F1E0
F1E0
F1E0
F1E0
F3C0
FFC0
FF80
FE00
ENDCHAR
STARTCHAR c99
ENCODING -1 99
SWIDTH 290 0
DWIDTH 9 0
BBX 8 12 1 0
BITMAP
0F
3F
7F
78
F0
F0
F0
F0
F8
7F
7F
1E
ENDCHAR
STARTCHAR c100
ENCODING -1 100
SWIDTH 419 0
DWIDTH 13 0
BBX 11 17 1 0
BITMAP
01E0
01E0
01E0
01E0
01E0
0FE0
3FE0
7FE0
79E0
F1E0
F1E0
F1E0
F1E0
F1E0
FFE0
7FE0
3DE0
ENDCHAR
STARTCHAR c101
ENCODING -1 101
SWIDTH 354 0
DWIDTH 11 0
BBX 10 12 0 0
BITMAP
1F00
7F80
7FC0
F1C0
F1C0
FFC0
FFC0
F000
F1C0
7FC0
7FC0
1F00
ENDCHAR
STARTCHAR c102
ENCODING -1 102
SWIDTH 225 0
DWIDTH 7 0
BBX 7 17 0 0
BITMAP
1E
3E
78
78
78
FE
FE
78
78
78
78
78
78
78
78
78
78
ENDCHAR
STARTCHAR c103
ENCODING -1 103
SWIDTH 354 0
DWIDTH 11 0
BBX 11 17 0 -5
BITMAP
3FE0
7FE0
F380
F3C0
F3C0
7F80
3F00
6000
E000
FF80
FFC0
7FE0
21E0
E1E0
E3C0
FFC0
7F00
ENDCHAR
STARTCHAR c104
ENCODING -1 104
SWIDTH 419 0
DWIDTH 13 0
BBX 11 17 1 0
BITMAP
F000
F000
F000
F000
F000
F3C0
F7E0
FFE0
F9E0
F1E0
F1E0
F1E0
F1E0
F1E0
F1E0
F1E0
F1E0
ENDCHAR
STARTCHAR c105
ENCODING -1 105
SWIDTH 193 0
DWIDTH 6 0
BBX 4 17 1 0
BITMAP
F0
F0
F0
00
00
F0
F0
F0
F0
F0
F0
F0
F0
F0
F0
F0
F0
ENDCHAR
STARTCHAR c106
ENCODING -1 106
SWIDTH 193 0
DWIDTH 6 0
BBX 5 22 0 -5
BITMAP
78
78
78
00
00
78
78
78
78
78
78
78
78
78
78
78
78
78
78
F0
F0
E0
ENDCHAR
STARTCHAR c107
ENCODING -1 107
SWIDTH 387 0
DWIDTH 12 0
BBX 11 17 1 0
BITMAP
F000
F000
F000
F000
F000
F0E0
F1E0
F1C0
F780
F700
FE00
FF00
F780
F7C0
F3C0
F3E0
F1E0
ENDCHAR
STARTCHAR c108
ENCODING -1 108
SWIDTH 193 0
DWIDTH 6 0
BBX 4 17 1 0
BITMAP
F0
F0
F0
F0
F0
F0
F0
F0
F0
F0
F0
F0
F0
F0
F0
F0
F0
ENDCHAR
STARTCHAR c109
ENCODING -1 109
SWIDTH 645 0
DWIDTH 20 0
BBX 18 12 1 0
BITMAP
F3C780
F7EFC0
FFFFC0
F9F3C0
F1E3C0
F1E3C0
F1E3C0
F1E3C0
F1E3C0
F1E3C0
F1E3C0
F1E3C0
ENDCHAR
STARTCHAR c110
ENCODING -1 110
SWIDTH 419 0
DWIDTH 13 0
BBX 11 12 1 0
BITMAP
F3C0
F7E0
FFE0
F9E0
F1E0
F1E0
F1E0
F1E0
F1E0
F1E0
F1E0
F1E0
ENDCHAR
STARTCHAR c111
ENCODING -1 111
SWIDTH 419 0
DWIDTH 13 0
BBX 11 12 1 0
BITMAP
1F00
7FC0
7FC0
F1E0
F1E0
F1E0
F1E0
F1E0
F1E0
7FC0
7FC0
1F00
ENDCHAR
STARTCHAR c112
ENCODING -1 112
SWIDTH 419 0
DWIDTH 13 0
BBX 11 17 1 -5
BITMAP
F780
FFC0
FFE0
F1E0
F1E0
F1E0
F1E0
F1E0
F3C0
FFC0
FF80
FE00
F000
F000
F000
F000
F000
ENDCHAR
STARTCHAR c113
ENCODING -1 113
SWIDTH 419 0
DWIDTH 13 0
BBX 11 17 1 -5
BITMAP
0FE0
3FE0
7FE0
79E0
F1E0
F1E0
F1E0
F1E0
F1E0
FFE0
7FE0
3DE0
01E0
01E0
01E0
01E0
01E0
ENDCHAR
STARTCHAR c114
ENCODING -1 114
SWIDTH 258 0
DWIDTH 8 0
BBX 7 12 1 0
BITMAP
F6
F6
FE
FE
F8
F0
F0
F0
F0
F0
F0
F0
ENDCHAR
STARTCHAR c115
ENCODING -1 115
SWIDTH 290 0
DWIDTH 9 0
BBX 9 12 0 0
BITMAP
3F80
7F80
FF80
F000
F000
FF00
7F80
0780
0780
FF80
FF00
FE00
ENDCHAR
STARTCHAR c116
ENCODING -1 116
SWIDTH 258 0
DWIDTH 8 0
BBX 8 16 0 0
BITMAP
78
78
78
78
FF
FF
FF
78
78
78
78
78
7B
7F
7F
3C
ENDCHAR
STARTCHAR c117
ENCODING -1 117
SWIDTH 419 0
DWIDTH 13 0
BBX 11 12 1 0
BITMAP
F1E0
F1E0
F1E0
F1E0
F1E0
F1E0
F1E0
F1E0
F3E0
FFE0
FDE0
79E0
ENDCHAR
STARTCHAR c118
ENCODING -1 118
SWIDTH 354 0
DWIDTH 11 0
BBX 11 12 0 0
BITMAP
F0E0
F0E0
F1E0
79C0
79C0
7B80
3B80
3F00
3F00
1F00
1E00
1E00
ENDCHAR
STARTCHAR c119
ENCODING -1 119
SWIDTH 580 0
DWIDTH 18 0
BBX 18 12 0 0
BITMAP
F1E1C0
F1E1C0
F1E3C0
79F380
79F380
7BF700
3BF700
3F7E00
3F7E00
1F3E00
1E3C00
1E3C00
ENDCHAR
STARTCHAR c120
ENCODING -1 120
SWIDTH 354 0
DWIDTH 11 0
BBX 11 12 0 0
BITMAP
F8E0
F8E0
7DC0
3DC0
3F80
1F00
1F00
3F80
7780
77C0
E3E0
E3E0
ENDCHAR
STARTCHAR c121
ENCODING -1 121
SWIDTH 354 0
DWIDTH 11 0
BBX 11 17 0 -5
BITMAP
F0E0
F0E0
F1E0
79C0
79C0
7B80
3B80
3F00
3F00
1F00
1E00
1E00
1C00
1C00
3800
F800
F000
ENDCHAR
STARTCHAR c122
ENCODING -1 122
SWIDTH 322 0
DWIDTH 10 0
BBX 10 12 0 0
BITMAP
7FC0
7FC0
7F80
0780
0F00
1E00
1E00
3C00
7800
7F80
FF80
FF80
ENDCHAR
STARTCHAR c123
ENCODING -1 123
SWIDTH 290 0
DWIDTH 9 0
BBX 8 21 0 -4
BITMAP
07
0F
18
18
18
18
18
18
30
E0
E0
30
18
18
18
18
18
18
18
0F
07
ENDCHAR
STARTCHAR c124
ENCODING -1 124
SWIDTH 354 0
DWIDTH 11 0
BBX 2 21 4 -4
BITMAP
C0
C0
C0
C0
C0
C0
C0
C0
C0
C0
C0
C0
C0
C0
C0
C0
C0
C0
C0
C0
C0
ENDCHAR
STARTCHAR c125
ENCODING -1 125
SWIDTH 290 0
DWIDTH 9 0
BBX 8 21 1 -4
BITMAP
E0
F0
18
18
18
18
18
18
0C
07
07
0C
18
18
18
18
18
18
18
F0
E0
ENDCHAR
STARTCHAR c126
ENCODING -1 126
SWIDTH 451 0
DWIDTH 14 0
BBX 14 6 0 3
BITMAP
3C0C
7E0C
670C
C398
C1F8
C0F0
ENDCHAR
STARTCHAR c128
ENCODING -1 128
SWIDTH 451 0
DWIDTH 14 0
BBX 14 17 0 0
BITMAP
3018
37D8
07C0
07C0
0EE0
0EE0
0EE0
1CF0
1C70
1C70
3FF8
3FF8
3878
7878
703C
F03C
F03C
ENDCHAR
STARTCHAR c129
ENCODING -1 129
SWIDTH 548 0
DWIDTH 17 0
BBX 15 17 1 0
BITMAP
3018
37D8
1FF0
3FF8
783C
783C
F01E
F01E
F01E
F01E
F01E
F01E
783C
783C
3FF8
1FF0
07C0
ENDCHAR
STARTCHAR c130
ENCODING -1 130
SWIDTH 516 0
DWIDTH 16 0
BBX 12 17 2 0
BITMAP
0300
F370
F370
F070
F070
F070
F070
F070
F070
F070
F070
F070
F070
78E0
7FE0
3FC0
0F00
ENDCHAR
STARTCHAR c131
ENCODING -1 131
SWIDTH 354 0
DWIDTH 11 0
BBX 11 15 0 0
BITMAP
3B80
3B80
0000
1F00
7F80
7FC0
63C0
03C0
1FC0
7FC0
F3C0
F3C0
FFC0
FDE0
79E0
ENDCHAR
STARTCHAR c132
ENCODING -1 132
SWIDTH 419 0
DWIDTH 13 0
BBX 11 15 1 0
BITMAP
3B80
3B80
0000
1F00
7FC0
7FC0
F1E0
F1E0
F1E0
F1E0
F1E0
F1E0
7FC0
7FC0
1F00
ENDCHAR
STARTCHAR c133
ENCODING -1 133
SWIDTH 419 0
DWIDTH 13 0
BBX 11 15 1 0
BITMAP
3B80
3B80
0000
F1E0
F1E0
F1E0
F1E0
F1E0
F1E0
F1E0
F1E0
F3E0
FFE0
FDE0
79E0
ENDCHAR
STARTCHAR c134
ENCODING -1 134
SWIDTH 354 0
DWIDTH 11 0
BBX 11 17 0 0
BITMAP
0E00
1F00
3B80
71C0
0000
1F00
7F80
7FC0
63C0
03C0
1FC0
7FC0
F3C0
F3C0
FFC0
FDE0
79E0
ENDCHAR
STARTCHAR c135
ENCODING -1 135
SWIDTH 354 0
DWIDTH 11 0
BBX 10 17 0 0
BITMAP
0E00
1F00
3B80
71C0
0000
1F00
7F80
7FC0
F1C0
F1C0
FFC0
FFC0
F000
F1C0
7FC0
7FC0
1F00
ENDCHAR
STARTCHAR c136
ENCODING -1 136
SWIDTH 193 0
DWIDTH 6 0
BBX 6 16 0 0
BITMAP
30
78
CC
00
78
78
78
78
78
78
78
78
78
78
78
78
ENDCHAR
STARTCHAR c137
ENCODING -1 137
SWIDTH 419 0
DWIDTH 13 0
BBX 11 17 1 0
BITMAP
0E00
1F00
3B80
71C0
0000
1F00
7FC0
7FC0
F1E0
F1E0
F1E0
F1E0
F1E0
F1E0
7FC0
7FC0
1F00
ENDCHAR
STARTCHAR c138
ENCODING -1 138
SWIDTH 419 0
DWIDTH 13 0
BBX 11 17 1 0
BITMAP
0E00
1F00
3B80
71C0
0000
F1E0
F1E0
F1E0
F1E0
F1E0
F1E0
F1E0
F1E0
F3E0
FFE0
FDE0
79E0
ENDCHAR
STARTCHAR c139
ENCODING -1 139
SWIDTH 354 0
DWIDTH 11 0
BBX 11 17 0 0
BITMAP
3800
1C00
0C00
0600
0000
1F00
7F80
7FC0
63C0
03C0
1FC0
7FC0
F3C0
F3C0
FFC0
FDE0
79E0
ENDCHAR
STARTCHAR c140
ENCODING -1 140
SWIDTH 354 0
DWIDTH 11 0
BBX 10 17 0 0
BITMAP
3800
1C00
0C00
0600
0000
1F00
7F80
7FC0
F1C0
F1C0
FFC0
FFC0
F000
F1C0
7FC0
7FC0
1F00
ENDCHAR
STARTCHAR c141
ENCODING -1 141
SWIDTH 193 0
DWIDTH 6 0
BBX 5 17 0 0
BITMAP
E0
70
30
18
00
78
78
78
78
78
78
78
78
78
78
78
78
ENDCHAR
STARTCHAR c142
ENCODING -1 142
SWIDTH 419 0
DWIDTH 13 0
BBX 11 17 1 0
BITMAP
3800
1C00
0C00
0600
0000
1F00
7FC0
7FC0
F1E0
F1E0
F1E0
F1E0
F1E0
F1E0
7FC0
7FC0
1F00
ENDCHAR
STARTCHAR c143
ENCODING -1 143
SWIDTH 419 0
DWIDTH 13 0
BBX 11 17 1 0
BITMAP
3800
1C00
0C00
0600
0000
F1E0
F1E0
F1E0
F1E0
F1E0
F1E0
F1E0
F1E0
F3E0
FFE0
FDE0
79E0
ENDCHAR
STARTCHAR c144
ENCODING -1 144
SWIDTH 354 0
DWIDTH 11 0
BBX 10 17 0 0
BITMAP
0380
0700
0600
0C00
0000
1F00
7F80
7FC0
F1C0
F1C0
FFC0
FFC0
F000
F1C0
7FC0
7FC0
1F00
ENDCHAR
STARTCHAR c145
ENCODING -1 145
SWIDTH 354 0
DWIDTH 11 0
BBX 10 15 0 0
BITMAP
3B80
3B80
0000
1F00
7F80
7FC0
F1C0
F1C0
FFC0
FFC0
F000
F1C0
7FC0
7FC0
1F00
ENDCHAR
STARTCHAR c146
ENCODING -1 146
SWIDTH 193 0
DWIDTH 6 0
BBX 6 15 0 0
BITMAP
CC
CC
00
78
78
78
78
78
78
78
78
78
78
78
78
ENDCHAR
STARTCHAR c147
ENCODING -1 147
SWIDTH 290 0
DWIDTH 9 0
BBX 8 17 1 -5
BITMAP
0F
3F
7F
78
F0
F0
F0
F0
F8
7F
7F
1E
00
1C
1C
0C
18
ENDCHAR
STARTCHAR c148
ENCODING -1 148
SWIDTH 354 0
DWIDTH 11 0
BBX 11 17 0 0
BITMAP
0380
0700
0600
0C00
0000
1F00
7F80
7FC0
63C0
03C0
1FC0
7FC0
F3C0
F3C0
FFC0
FDE0
79E0
ENDCHAR
STARTCHAR c149
ENCODING -1 149
SWIDTH 419 0
DWIDTH 13 0
BBX 11 17 1 0
BITMAP
3CC0
7EC0
6FC0
6780
0000
F3C0
F7E0
FFE0
F9E0
F1E0
F1E0
F1E0
F1E0
F1E0
F1E0
F1E0
F1E0
ENDCHAR
STARTCHAR c155
ENCODING -1 155
SWIDTH 419 0
DWIDTH 13 0
BBX 13 2 0 5
BITMAP
FFF8
FFF8
ENDCHAR
STARTCHAR c159
ENCODING -1 159
SWIDTH 419 0
DWIDTH 13 0
BBX 0 0 0 0
BITMAP
ENDCHAR
STARTCHAR c171
ENCODING -1 171
SWIDTH 419 0
DWIDTH 13 0
BBX 12 17 1 0
BITMAP
1FC0
7FE0
79E0
F0E0
F0E0
F1C0
F180
F380
F3C0
F3E0
F1F0
F0F0
F0F0
F0F0
F1F0
F7E0
F7C0
ENDCHAR
ENDFONT
